<svg id="Layer_1" data-name="Layer 1" xmlns="http://www.w3.org/2000/svg" viewBox="0 0 469.55 426.59"><defs><style>.cls-1{fill:#fff;}</style></defs><title>calligraphy</title><path d="M479.26,393.77a2.9,2.9,0,0,1-1.6-.16c-8.16-3.81-12.64,1.45-17.84,6.47a69.22,69.22,0,0,0-14.95,21.26c-9.89,21.37-20.38,42.47-30.29,63.83-2.75,5.92-6.58,8.75-13.1,9.81-24.48,4-49.07,7.64-73.23,13.11-32.83,7.43-63,21.66-90.93,40.4-9.36,6.27-18.8,12.42-28.13,18.73-4.53,3.06-9.2,5.95-14,1.2s-2.28-9.4.78-14c9.52-14.46,19.3-28.77,28.25-43.58,21.46-35.52,33.35-74.36,39-115.3,1.59-11.56,3.77-23.05,5.39-34.61.79-5.73,3.52-9.19,8.85-11.68,23.22-10.85,46.6-21.44,69.22-33.47,8.92-4.74,16.06-12.89,23.77-19.76.9-.8.74-3.44.29-5-2.86-10-.58-18.58,6.62-25.87q14.28-14.51,28.76-28.8c4.5-4.45,9.66-4.84,13.26-1.3,3.82,3.74,3.59,8.52-1,13.21-9.06,9.24-18.3,18.3-27.41,27.5-5.76,5.8-5.76,9.59,0,15.37q40.71,40.77,81.48,81.48c5.72,5.72,9.47,5.65,15.38-.21,9.05-9,18-18,27-27,4.57-4.53,9.54-5.06,13.24-1.62,4,3.73,3.69,8.74-1.17,13.65-9.54,9.65-19.17,19.2-28.77,28.79A25.11,25.11,0,0,1,479.26,393.77ZM263.16,512.13c19.22-6.64,38.11-14.67,57.79-19.57,24.23-6,49.12-9.36,73.69-14.07,2.09-.4,4.78-2,5.66-3.76,11.09-22.64,21.91-45.42,32.75-68.07a9.14,9.14,0,0,0-1.09-1.82c-24-24.09-48.06-48.22-72.31-72.1-1.28-1.25-5-1.32-6.89-.44-18.35,8.51-36.27,18-54.89,25.81-10,4.19-13.62,10.22-15,20.65-3.91,29.34-8.3,58.7-18.74,86.65-4.41,11.81-9.42,23.4-14.15,35.09l1.14,1a49.62,49.62,0,0,1,4.16-5.53q20.52-20.68,41.17-41.22c5.23-5.21,10.35-5.84,14.16-1.9s3.21,8.6-2.18,14.12c-1.31,1.35-2.66,2.66-4,4ZM372.07,318.87l71.79,71.87,10.79-9.67-71.84-71.85Z" transform="translate(-64.55 -232.62)"/><path d="M159.69,324.41c.1-27.11-9.62-49.65-30.6-67.1-.8-.66-1.6-1.34-2.33-2.07-3.65-3.63-4.09-7.69-1.06-11.8,2.84-3.86,8-4.3,12.23-1,20.69,16.32,33.77,37.23,37.48,63.55,4.46,31.6-2.72,61.67-14.6,90.37-12.5,30.18-27.37,59.38-41,89.08-11,23.83-22,47.63-32.43,71.71-2.83,6.57-3.49,14.1-5,21.21-5.15,24,20.18,44.56,43.08,37.26,13.06-4.17,24.07-11.44,34-20.52,6.13-5.62,11.6-12,17.41-18,3.88-4,8.57-4.55,12.21-1.21,3.82,3.51,4.26,7.9,1.05,11.76-15.63,18.85-33.44,34.87-57,43.46-34.31,12.5-75.8-15.51-67.37-58.8,3.94-20.26,11.55-39.14,20.47-57.55C103,480,120.52,445.36,137,410.28c10.38-22.11,18.27-45.22,21.37-69.66C159,335.25,159.26,329.82,159.69,324.41Z" transform="translate(-64.55 -232.62)"/><path d="M534.1,633.45a25.25,25.25,0,0,1-25,25.75,25.57,25.57,0,0,1-26.21-25.27A25.86,25.86,0,0,1,508.65,608,25.58,25.58,0,0,1,534.1,633.45Zm-25.42-8.26a8.52,8.52,0,1,0,8.45,8.29A8.76,8.76,0,0,0,508.68,625.19Z" transform="translate(-64.55 -232.62)"/><path d="M512.53,522.41c-4.17,0-8.35.14-12.52,0-5.19-.22-8.29-3.32-8.41-8.29s3-8.36,8.11-8.53c8.76-.29,17.53-.33,26.28,0,5,.19,8.14,3.29,8,8.55s-3.21,8-8.33,8.26C521.3,522.57,516.91,522.41,512.53,522.41Z" transform="translate(-64.55 -232.62)"/><path d="M452.63,522.41c-4.17,0-8.35.16-12.51,0-5.18-.24-8.22-3.22-8.32-8.31s3-8.34,8.1-8.5q13.13-.44,26.27,0c5.12.18,8.16,3.47,8,8.58s-3.24,8-8.42,8.23C461.39,522.55,457,522.42,452.63,522.41Z" transform="translate(-64.55 -232.62)"/><path d="M474.55,543.87c0-4.38-.18-8.77.05-13.14.27-5.22,3.45-8.21,8.48-8.11s8.13,3.2,8.22,8.41q.22,12.83,0,25.66c-.1,5.15-3,8.25-8.2,8.34s-8.19-2.86-8.49-8C474.34,552.64,474.55,548.25,474.55,543.87Z" transform="translate(-64.55 -232.62)"/><path d="M491.32,484c0,4.38.19,8.77,0,13.13-.28,5.21-3.34,8.06-8.5,8-4.87,0-8-2.84-8.13-7.71-.27-8.95-.24-17.92,0-26.88.14-4.94,3.45-7.75,8.13-7.78,5,0,8.24,2.84,8.5,8.09C491.49,475.22,491.32,479.61,491.32,484Z" transform="translate(-64.55 -232.62)"/><path d="M394.61,638a9.85,9.85,0,0,1-9.57,9.56,9.67,9.67,0,0,1-9.62-10,9.38,9.38,0,0,1,9.78-9.16A9.7,9.7,0,0,1,394.61,638Z" transform="translate(-64.55 -232.62)"/><path class="cls-1" d="M263.16,512.13,304.43,471c1.33-1.33,2.68-2.64,4-4,5.39-5.52,6.09-10.09,2.18-14.12s-8.93-3.31-14.16,1.9Q275.82,475.34,255.27,496a49.62,49.62,0,0,0-4.16,5.53l-1.14-1c4.73-11.69,9.74-23.28,14.15-35.09,10.44-28,14.83-57.31,18.74-86.65,1.39-10.43,5-16.46,15-20.65,18.62-7.81,36.54-17.3,54.89-25.81,1.89-.88,5.61-.81,6.89.44,24.25,23.88,48.26,48,72.31,72.1a9.14,9.14,0,0,1,1.09,1.82c-10.84,22.65-21.66,45.43-32.75,68.07-.88,1.78-3.57,3.36-5.66,3.76-24.57,4.71-49.46,8.05-73.69,14.07C301.27,497.46,282.38,505.49,263.16,512.13Zm89.74-135.5c-19.3,0-34.43,15.06-34.22,34a34.22,34.22,0,0,0,68.44,0C387.24,391.54,372.2,376.61,352.9,376.63Z" transform="translate(-64.55 -232.62)"/><path class="cls-1" d="M372.07,318.87l10.74-9.65,71.84,71.85-10.79,9.67Z" transform="translate(-64.55 -232.62)"/><path class="cls-1" d="M508.68,625.19a8.52,8.52,0,1,1-8.61,8.1A8.75,8.75,0,0,1,508.68,625.19Z" transform="translate(-64.55 -232.62)"/><path d="M352.9,376.63c19.3,0,34.34,14.91,34.22,34a34.22,34.22,0,0,1-68.44,0C318.47,391.69,333.6,376.65,352.9,376.63Zm-.24,50.7a16.65,16.65,0,0,0,17.18-16.86,16.94,16.94,0,0,0-17-17.15,17.26,17.26,0,0,0-17,16.67A16.92,16.92,0,0,0,352.66,427.33Z" transform="translate(-64.55 -232.62)"/><path class="cls-1" d="M352.66,427.33A16.92,16.92,0,0,1,335.86,410a17.26,17.26,0,0,1,17-16.67,16.94,16.94,0,0,1,17,17.15A16.65,16.65,0,0,1,352.66,427.33Z" transform="translate(-64.55 -232.62)"/></svg>