<svg id="Layer_1" data-name="Layer 1" xmlns="http://www.w3.org/2000/svg" viewBox="0 0 568.41 424.42"><defs><style>.cls-1{fill:#fff;}</style></defs><title>game icons</title><path d="M13.43,528.61C15.64,516.48,18,504.38,20,492.22c4.64-27.31,9.13-54.65,13.74-82A17.49,17.49,0,0,1,35.68,404c2.16-3.48,5.51-4.94,9.55-3.42,4.43,1.67,6.23,5.11,5.47,9.69-2.58,15.68-5.27,31.33-7.9,47-4.12,24.59-8.44,49.16-12.26,73.8-3.77,24.29,13,48.53,37.43,55s51-6.21,59.67-30.15C139,524.47,149.2,492.63,159.9,461c.53-1.57,1-3.17,1.55-4.73,2.79-7.68,7.8-9.51,14.63-5,13.43,8.82,28.1,12,43.34,7.14,8-2.55,15-8.22,22.61-12.25,3.26-1.73,6.82-4.05,10.27-4.09q45.21-.48,90.43,0A16.89,16.89,0,0,1,353,446.09c18.58,16.69,44,19.14,65.08,5.8,8.44-5.35,12.88-3.75,16.11,5.82,4.37,12.94,8.77,25.87,13.08,38.83,2.13,6.41.26,11-4.94,12.66-4.81,1.51-8.71-1.1-10.9-7.47-3.49-10.12-6.9-20.27-10.35-30.4a9,9,0,0,0-.8-1.27c-12,5.45-24.63,8.07-38,6.66a71.29,71.29,0,0,1-36.89-15.15,14,14,0,0,0-7.82-2.95c-26.63-.22-53.26-.18-79.89-.05-2.22,0-4.93.54-6.58,1.87-23.34,18.82-48.7,21.2-76.45,9.63-.76,2-1.63,4.18-2.37,6.37-9.3,27.64-18.33,55.37-27.93,82.91a66.52,66.52,0,0,1-62.54,44.87c-29.16.15-54.39-17.11-64.19-44.11-1.75-4.82-2.8-9.89-4.17-14.85Z" transform="translate(-13.43 -179.8)"/><path d="M362.72,259.23h-130c-2.31,13.24,3.29,20.06,16.35,20.12,10.17,0,20.34-.12,30.51.08,6.95.13,10.82,4.87,9.12,10.7-1.2,4.16-4.37,5.92-8.39,5.92-12.58,0-25.19.42-37.71-.41-15.25-1-27.74-14-26.85-29.31.64-11-4.27-16.7-12.43-22.23C150.93,208.57,78.7,240,68.78,302.7c-3.84,24.26-8.07,48.47-12.19,72.69-1,5.92-4.79,8.86-9.93,8-4.81-.77-7.52-4.52-6.54-10.39,4.57-27.33,8.3-54.85,14.35-81.86,7.14-31.87,27.18-54.4,56.4-68.65,3.56-1.74,5.07-3.53,4.71-7.42a90.38,90.38,0,0,1,0-10.54c.34-13.68,10.59-24.23,24.26-24.56q16.37-.39,32.74,0c13.59.32,24.88,10.45,23.91,23.88-.93,12.94,2.66,21.22,14.92,25.81a22,22,0,0,1,8,5.84c5.3,5.81,11.62,7,19.24,6.92,41.25-.34,82.5-.2,123.75-.09a14.22,14.22,0,0,0,9.38-3.41c7.31-5.59,15.26-10.32,22.72-15.72a9.45,9.45,0,0,0,3.6-5.78c.56-4.75,0-9.61.32-14.41a24.19,24.19,0,0,1,23.4-23c11.45-.33,22.94-.34,34.39,0,12.73.4,24,11,23.07,23.68-.85,12,3.22,17.89,13.91,23.92,30.13,17,45.44,44.44,50.88,78.41,10.5,65.49,21.84,130.84,32.81,196.24,1.56,9.3,3.24,18.58,4.48,27.92,4.81,36.38-25.27,72.15-62,73.86-32.8,1.53-59.11-16.39-69.59-47.41-2.19-6.47-4.42-12.93-6.51-19.43-2-6.17-.1-10.63,4.95-12.19,4.87-1.51,8.72.81,10.83,6.75,2.83,8,5.24,16.17,8.34,24.07a50.42,50.42,0,0,0,60.29,30c25-7,40.87-31.05,36.65-56.46-12.66-76.36-25-152.78-38.5-229C520,267.6,500,245,468.49,234.14c-31.34-10.76-60.16-4.47-85.39,17.08-1.88,1.6-2.83,4.85-3.25,7.49-.79,4.89-.23,10.05-1.36,14.82-2.85,12-13.3,21.32-25.57,22.06-12.72.77-25.51.55-38.26.42-5.46-.06-8.56-3.46-8.59-8.21,0-4.94,3.24-8.23,9-8.35,10-.21,20-.07,30-.09C359.06,279.33,364,273.9,362.72,259.23ZM132.23,213.94h47.84a95.33,95.33,0,0,0-.08-10.19c-.44-4.45-3.35-7-7.78-7.06-10.68-.15-21.37-.17-32.05,0-4.74.09-7.43,3.05-7.87,7.67C132,207.63,132.23,210.94,132.23,213.94Zm330.66,0a81.47,81.47,0,0,0-.08-9.84c-.53-4.59-3.35-7.37-8.11-7.42-10.5-.11-21-.08-31.49,0-4.2,0-7.3,2.19-7.89,6.29s-.13,8.25-.13,11Z" transform="translate(-13.43 -179.8)"/><path d="M128.71,344.94c-18.35-3.3-28-13-27.42-27.47.59-14.1,10.62-23.54,27.73-25.56.23-9.08,3.1-17.63,11.31-22.41a35,35,0,0,1,16.59-4.76c13.58-.08,22.14,9.82,24.82,27.25,8.65.47,17.08,2.86,21.8,10.62a35.51,35.51,0,0,1,5.26,16.95c.28,14-9.62,22.72-26.87,25.26-4.6,19.71-12.56,27.68-27.38,27.39C140.44,371.94,132,363,128.71,344.94Zm26.7-63.8c-5-.08-8.92,3.51-9.42,9-.33,3.48,0,7-.23,10.52-.33,5.23-3.23,8-8.49,8.24-3.32.15-6.66-.11-10,.13-5.41.41-9.24,4.33-9.31,9.21-.09,5.08,4,9.17,9.59,9.45,3.14.15,6.29-.07,9.42.07,5.53.25,8.49,3.14,8.79,8.61.2,3.69-.12,7.42.35,11.07a8.93,8.93,0,0,0,9.57,8.08c4.91-.21,8.41-3.69,8.76-8.93.19-2.76,0-5.54.09-8.31.13-7.5,3-10.44,10.37-10.55,2.77,0,5.55.12,8.31-.06,5.51-.34,9.08-4,9.15-9.16s-3.41-9-8.89-9.45c-3.31-.29-6.65,0-10-.15-5.5-.2-8.53-3-8.9-8.53-.24-3.5.07-7-.18-10.53A9,9,0,0,0,155.41,281.14Z" transform="translate(-13.43 -179.8)"/><path d="M387.2,374.15a34.43,34.43,0,1,1-34.38,34.44A34.09,34.09,0,0,1,387.2,374.15Zm-17.7,34.09a17.9,17.9,0,0,0,17.7,18.09A18.21,18.21,0,0,0,405,408.74a17.85,17.85,0,0,0-17.3-17.92A17.45,17.45,0,0,0,369.5,408.24Z" transform="translate(-13.43 -179.8)"/><path d="M242.32,408.43A34.48,34.48,0,0,1,207.88,443c-18.87-.06-34.59-15.92-34.43-34.74a34.51,34.51,0,0,1,34.34-34.11A34.07,34.07,0,0,1,242.32,408.43Zm-16.68-.06a17.5,17.5,0,0,0-17.52-17.56,17.86,17.86,0,0,0-18,17.8,18.27,18.27,0,0,0,17.68,17.72A17.87,17.87,0,0,0,225.64,408.37Z" transform="translate(-13.43 -179.8)"/><path d="M487,294.16a24.26,24.26,0,0,1-1,48.51c-13.46-.34-24.27-11.54-23.91-24.78A24.28,24.28,0,0,1,487,294.16Zm-.41,16.71a7.51,7.51,0,1,0-.12,15,7.51,7.51,0,1,0,.12-15Z" transform="translate(-13.43 -179.8)"/><path d="M445.59,335.13a24.25,24.25,0,0,1,0,48.5,24.25,24.25,0,1,1,0-48.5Zm-.11,31.73a7.51,7.51,0,1,0,.19-15,7.51,7.51,0,1,0-.19,15Z" transform="translate(-13.43 -179.8)"/><path d="M446.17,253.17c13.48.22,23.86,11.12,23.62,24.8a24.29,24.29,0,1,1-23.62-24.8Zm6.92,24.32a7.32,7.32,0,0,0-7.67-7.63,7.53,7.53,0,0,0-7.45,7.39,7.65,7.65,0,0,0,7.76,7.72A7.51,7.51,0,0,0,453.09,277.49Z" transform="translate(-13.43 -179.8)"/><path d="M404.79,294.16a23.92,23.92,0,0,1,24,24.41,24.27,24.27,0,1,1-24-24.41Zm7.3,24.35a7.3,7.3,0,0,0-7.64-7.64,7.38,7.38,0,0,0-7.41,7.35,7.47,7.47,0,0,0,7.68,7.68A7.38,7.38,0,0,0,412.09,318.51Z" transform="translate(-13.43 -179.8)"/><path d="M260.89,334.13c4.05,0,8.12-.12,12.17,0,4.71.19,7.54,2.74,8,7.49.45,4.58-2.42,8.58-7.21,8.81-8.83.42-17.71.4-26.54,0-4.87-.21-7.73-4-7.52-8.59s3.3-7.54,8.37-7.74C252.4,334,256.64,334.13,260.89,334.13Z" transform="translate(-13.43 -179.8)"/><path d="M335,334.14c4.06,0,8.12-.16,12.17,0,5,.24,8.06,3.39,8.16,7.95s-2.83,8.22-7.74,8.41c-8.66.34-17.34.35-26,0-4.9-.21-7.75-3.93-7.59-8.53s3.17-7.48,8.26-7.86l1.11,0H335Z" transform="translate(-13.43 -179.8)"/><path class="cls-1" d="M132.23,213.94c0-3-.24-6.31.06-9.57.44-4.62,3.13-7.58,7.87-7.67,10.68-.18,21.37-.16,32.05,0,4.43.06,7.34,2.61,7.78,7.06a95.33,95.33,0,0,1,.08,10.19Z" transform="translate(-13.43 -179.8)"/><path class="cls-1" d="M462.89,213.93h-47.7c0-2.74-.45-6.94.13-11s3.69-6.26,7.89-6.29c10.5-.06,21-.09,31.49,0,4.76.05,7.58,2.83,8.11,7.42A81.47,81.47,0,0,1,462.89,213.93Z" transform="translate(-13.43 -179.8)"/><path class="cls-1" d="M155.41,281.14a9,9,0,0,1,9,8.7c.25,3.5-.06,7,.18,10.53.37,5.49,3.4,8.33,8.9,8.53,3.33.13,6.67-.14,10,.15,5.48.47,9,4.33,8.89,9.45s-3.64,8.82-9.15,9.16c-2.76.18-5.54,0-8.31.06-7.36.11-10.24,3-10.37,10.55-.05,2.77.1,5.55-.09,8.31-.35,5.24-3.85,8.72-8.76,8.93a8.93,8.93,0,0,1-9.57-8.08c-.47-3.65-.15-7.38-.35-11.07-.3-5.47-3.26-8.36-8.79-8.61-3.13-.14-6.28.08-9.42-.07-5.6-.28-9.68-4.37-9.59-9.45.07-4.88,3.9-8.8,9.31-9.21,3.31-.24,6.65,0,10-.13,5.26-.23,8.16-3,8.49-8.24.22-3.5-.1-7,.23-10.52C146.49,284.65,150.44,281.06,155.41,281.14Z" transform="translate(-13.43 -179.8)"/><path class="cls-1" d="M369.5,408.24a17.45,17.45,0,0,1,18.2-17.42A17.85,17.85,0,0,1,405,408.74a18.21,18.21,0,0,1-17.8,17.59A17.9,17.9,0,0,1,369.5,408.24Z" transform="translate(-13.43 -179.8)"/><path class="cls-1" d="M225.64,408.37a17.87,17.87,0,0,1-17.82,18,18.27,18.27,0,0,1-17.68-17.72,17.86,17.86,0,0,1,18-17.8A17.5,17.5,0,0,1,225.64,408.37Z" transform="translate(-13.43 -179.8)"/><path class="cls-1" d="M486.63,310.87a7.51,7.51,0,1,1-.12,15,7.51,7.51,0,1,1,.12-15Z" transform="translate(-13.43 -179.8)"/><path class="cls-1" d="M445.48,366.86a7.51,7.51,0,1,1,.19-15,7.51,7.51,0,1,1-.19,15Z" transform="translate(-13.43 -179.8)"/><path class="cls-1" d="M453.09,277.49a7.51,7.51,0,0,1-7.36,7.48,7.65,7.65,0,0,1-7.76-7.72,7.53,7.53,0,0,1,7.45-7.39A7.32,7.32,0,0,1,453.09,277.49Z" transform="translate(-13.43 -179.8)"/><path class="cls-1" d="M412.09,318.51a7.38,7.38,0,0,1-7.37,7.39,7.47,7.47,0,0,1-7.68-7.68,7.38,7.38,0,0,1,7.41-7.35A7.3,7.3,0,0,1,412.09,318.51Z" transform="translate(-13.43 -179.8)"/></svg>