<svg id="Layer_1" data-name="Layer 1" xmlns="http://www.w3.org/2000/svg" viewBox="0 0 534.32 534.32"><defs><style>.cls-1{fill:#fff;}</style></defs><title>interface</title><path class="cls-1" d="M31.25,134.67H565.56V669H31.25ZM396.75,540v6.27q0,35.16,0,70.31c0,18.78,10.93,29.69,29.75,29.71q50.52,0,101,0c20.15,0,30.74-10.65,30.74-30.87V387.29c0-22-11.36-33.42-33.23-33.43H509.79v-7.09q0-73.17-.05-146.34a54.59,54.59,0,0,0-1-12.4c-4.27-18.17-19.18-28.93-39.85-28.93q-193.73,0-387.46,0A55.26,55.26,0,0,0,69,160.24c-17.79,4.14-28.53,18.66-28.53,38.37q0,150.5,0,301c0,24.59,15.71,40.13,40.49,40.14H213.57a17.08,17.08,0,0,1,0,2.25c-2.28,11.92-5.06,23.77-6.73,35.77a70.64,70.64,0,0,1-12.36,31c-5.31,7.69-10,15.83-14.88,23.82-4.54,7.42-1.22,13.65,7.45,13.66q88.8.09,177.59,0c8.7,0,12.1-6.24,7.61-13.62-5-8.14-9.71-16.45-15.14-24.28-6.45-9.29-10.94-19.18-12.07-30.5-.17-1.72-.64-3.41-1-5.11L337.84,540Z" transform="translate(-31.25 -134.67)"/><path d="M396.75,540H337.84l6.23,32.75c.32,1.7.79,3.39,1,5.11,1.13,11.32,5.62,21.21,12.07,30.5,5.43,7.83,10.17,16.14,15.14,24.28,4.49,7.38,1.09,13.61-7.61,13.62q-88.8.09-177.59,0c-8.67,0-12-6.24-7.45-13.66,4.88-8,9.57-16.13,14.88-23.82a70.64,70.64,0,0,0,12.36-31c1.67-12,4.45-23.85,6.73-35.77a17.08,17.08,0,0,0,0-2.25H81c-24.78,0-40.48-15.55-40.49-40.14q0-150.51,0-301c0-19.71,10.74-34.23,28.53-38.37a55.26,55.26,0,0,1,12.4-1.11q193.74-.07,387.46,0c20.67,0,35.58,10.76,39.85,28.93a54.59,54.59,0,0,1,1,12.4q.11,73.17.05,146.34v7.09h15.26c21.87,0,33.23,11.43,33.23,33.43v228.1c0,20.22-10.59,30.87-30.74,30.87q-50.5,0-101,0c-18.82,0-29.73-10.93-29.75-29.71q0-35.16,0-70.31Zm60.33-265.58H94.13V486.74H395v-6.61c0-32.11-.07-64.21,0-96.32.06-17.55,11.71-29.17,29-29.23,7.29,0,14.58,0,21.87,0h11.21Zm36.59,79.16v-6q0-74,0-147.89c0-16-8.41-24.32-24.43-24.32q-194.25,0-388.5,0c-15.86,0-24.29,8.5-24.3,24.51q0,149.19,0,298.4c0,16.2,8.45,24.61,24.79,24.61H394.58V503.38h-306c-9.42,0-11.73-2.26-11.73-11.58q0-142.43,0-284.86c0-9.57,2-11.5,11.67-11.5H460.84c9.55,0,11.88,2.41,11.88,12.14q0,69.78,0,139.56v6.41ZM411.55,588.61H541v-177H411.55ZM93,257.33H456V212.14H93ZM540.54,394.84c0-3.15,0-5.89,0-8.64-.07-10.53-5.56-16.09-16-16.13-9.47,0-18.95,0-28.42,0-23.95,0-47.89-.09-71.83.1a13.32,13.32,0,0,0-12.77,11.63c-.44,4.23-.09,8.54-.09,13Zm.61,210.79H411.32c0,3.44-.08,6.54,0,9.63.25,8,5.81,14,13.72,14.07q51.27.21,102.53,0a13.52,13.52,0,0,0,13.48-12.11C541.55,613.52,541.15,609.69,541.15,605.63Z" transform="translate(-31.25 -134.67)"/><path class="cls-1" d="M457.08,274.39v80.18H445.87c-7.29,0-14.58,0-21.87,0-17.27.06-28.92,11.68-29,29.23-.1,32.11,0,64.21,0,96.32v6.61H94.13V274.39ZM248.41,460.6c9.19,0,18.38.06,27.58,0,6.92-.05,10-2.92,10-9.74q.17-27.58,0-55.16c-.05-6.62-2.95-9.45-9.72-9.49q-27.57-.17-55.16,0c-6.62.05-9.49,3.07-9.52,9.7q-.12,27.32,0,54.63c0,7.11,3,10,10.26,10.06C230.72,460.65,239.56,460.6,248.41,460.6Zm129.68-37.11c0-9.2,0-18.4,0-27.6,0-6.92-2.46-9.64-9.29-9.68q-27.85-.21-55.71,0c-6.72,0-9.16,2.57-9.18,9.19q-.13,27.86,0,55.7c0,6.85,2.63,9.45,9.48,9.47q27.6.1,55.19,0c6.8,0,9.47-2.76,9.52-9.49C378.14,441.88,378.09,432.68,378.09,423.49ZM193,423.39c0-9,.05-18.05,0-27.07,0-7.7-2.28-10.1-9.86-10.14Q156,386,129,386.17c-7.82,0-10.21,2.55-10.22,10.37q0,26.81,0,53.62c0,7.83,2.49,10.4,10.18,10.42q27.07.07,54.14,0c7.39,0,9.86-2.57,9.91-10.12C193.05,441.44,193,432.41,193,423.39ZM244.48,345H145.6c-6.24,0-12.49,0-18.73,0-4.69.06-7.5,2.49-8,7.15-.48,4.16,2.78,8,7.23,8.7a38.74,38.74,0,0,0,5.71.23q112.67,0,225.33,0a38.8,38.8,0,0,0,6.74-.36c4.27-.75,6.06-3.68,6-7.82s-2.13-6.9-6.24-7.73a26.38,26.38,0,0,0-5.19-.18Zm-56.42-44.55c-19.93,0-39.86-.05-59.78,0-6.17,0-9.53,3-9.5,7.92,0,4.64,3.93,8.11,9.43,8.38.87.05,1.74,0,2.6,0H245.19a26.13,26.13,0,0,0,5.17-.28c5.52-1.13,8.73-7.65,5.27-12-1.82-2.27-5.79-3.87-8.82-3.92C227.23,300.3,207.65,300.47,188.06,300.48Z" transform="translate(-31.25 -134.67)"/><path class="cls-1" d="M493.67,353.55H472.73v-6.41q0-69.78,0-139.56c0-9.73-2.33-12.14-11.88-12.14H88.49c-9.72,0-11.67,1.93-11.67,11.5q0,142.44,0,284.86c0,9.32,2.31,11.58,11.73,11.58h306v19.45H81.24c-16.34,0-24.79-8.41-24.79-24.61q0-149.2,0-298.4c0-16,8.44-24.51,24.3-24.51q194.25,0,388.5,0c16,0,24.43,8.37,24.43,24.32q0,73.95,0,147.89Z" transform="translate(-31.25 -134.67)"/><path class="cls-1" d="M411.55,588.61v-177H541v177Zm64.75-16.53c9.2,0,18.4.09,27.6,0,5.76-.08,9-2.9,9.09-8.51q.28-26.55,0-53.1c-.06-5.75-2.76-7.95-8.65-8q-27.33,0-54.67,0c-7.26,0-10.12,2.9-10.14,10.1q-.06,24.72,0,49.46c0,7.13,2.93,10,10.2,10C458.59,572.13,467.45,572.09,476.3,572.08Zm.09-90.57c9,0,18,0,27,0,6.22,0,9.42-2.71,9.56-7.81.14-5.29-3.13-8.21-9.63-8.23q-27-.09-54.09,0c-6.48,0-9.63,2.6-9.71,7.61s3.87,8.39,9.78,8.43C458.35,481.55,467.37,481.51,476.39,481.51Zm-14-53.2v0H448.88c-.35,0-.7,0-1,0-5.24.28-8.34,3.26-8.29,8a7.74,7.74,0,0,0,7.89,7.92q14.79.29,29.58,0c5-.1,7.64-3.13,7.61-7.95s-2.7-7.67-7.73-7.87C472.06,428.16,467.21,428.31,462.37,428.31Z" transform="translate(-31.25 -134.67)"/><path class="cls-1" d="M93,257.33V212.14H456v45.19Zm126.32-31v-.06c-2.6,0-5.2-.07-7.79,0-4.7.17-7.39,2.64-7.77,7.35-.37,4.54,2.52,8.18,7.21,8.45,5.69.32,11.42.25,17.12,0,4.59-.19,6.69-3.28,7-7.55a7.4,7.4,0,0,0-7-8.17C225.19,226.12,222.22,226.34,219.28,226.34Zm-88.79,15.79v0c2.94,0,5.9.21,8.81-.05,4.56-.41,6.65-3.28,6.75-7.69.11-4.59-2.47-7.79-7-8-5.7-.28-11.43-.26-17.13,0-4.48.2-6.82,3.09-7.18,7.42a7.67,7.67,0,0,0,6.93,8.27A81,81,0,0,0,130.49,242.13Zm44.1,0v0c2.94,0,5.9.2,8.82-.05,4.6-.38,7.21-3.41,7.19-7.9s-2.73-7.65-7.26-7.86c-5.53-.26-11.08-.24-16.61,0-4.66.18-7.38,3.18-7.46,7.62s2.6,7.67,7,8.13A79,79,0,0,0,174.59,242.16Z" transform="translate(-31.25 -134.67)"/><path class="cls-1" d="M540.54,394.84H411.45c0-4.49-.35-8.8.09-13a13.32,13.32,0,0,1,12.77-11.63c23.94-.19,47.88-.1,71.83-.1,9.47,0,19,0,28.42,0,10.42,0,15.91,5.6,16,16.13C540.56,389,540.54,391.69,540.54,394.84Z" transform="translate(-31.25 -134.67)"/><path class="cls-1" d="M541.15,605.63c0,4.06.4,7.89-.08,11.59a13.52,13.52,0,0,1-13.48,12.11q-51.25.2-102.53,0c-7.91,0-13.47-6.08-13.72-14.07-.1-3.09,0-6.19,0-9.63Z" transform="translate(-31.25 -134.67)"/><path d="M248.41,460.6c-8.85,0-17.69,0-26.54,0-7.23-.06-10.24-2.95-10.26-10.06q-.11-27.31,0-54.63c0-6.63,2.9-9.65,9.52-9.7q27.59-.19,55.16,0c6.77,0,9.67,2.87,9.72,9.49q.18,27.58,0,55.16c0,6.82-3.1,9.69-10,9.74C266.79,460.66,257.6,460.6,248.41,460.6Z" transform="translate(-31.25 -134.67)"/><path d="M378.09,423.49c0,9.19.05,18.39,0,27.59-.05,6.73-2.72,9.47-9.52,9.49q-27.6.12-55.19,0c-6.85,0-9.45-2.62-9.48-9.47q-.11-27.86,0-55.7c0-6.62,2.46-9.15,9.18-9.19q27.85-.19,55.71,0c6.83,0,9.25,2.76,9.29,9.68C378.13,405.09,378.09,414.29,378.09,423.49Z" transform="translate(-31.25 -134.67)"/><path d="M193,423.39c0,9,.05,18.05,0,27.07,0,7.55-2.52,10.1-9.91,10.12q-27.07.07-54.14,0c-7.69,0-10.17-2.59-10.18-10.42q0-26.81,0-53.62c0-7.82,2.4-10.33,10.22-10.37q27.08-.12,54.15,0c7.58,0,9.81,2.44,9.86,10.14C193.05,405.34,193,414.37,193,423.39Z" transform="translate(-31.25 -134.67)"/><path d="M244.48,345h114a26.38,26.38,0,0,1,5.19.18c4.11.83,6.23,3.51,6.24,7.73s-1.77,7.07-6,7.82a38.8,38.8,0,0,1-6.74.36q-112.67,0-225.33,0a38.74,38.74,0,0,1-5.71-.23c-4.45-.67-7.71-4.54-7.23-8.7.54-4.66,3.35-7.09,8-7.15,6.24-.07,12.49,0,18.73,0Z" transform="translate(-31.25 -134.67)"/><path d="M188.06,300.47c19.59,0,39.17-.17,58.75.18,3,.05,7,1.65,8.82,3.92,3.46,4.31.25,10.83-5.27,12a26.13,26.13,0,0,1-5.17.28H130.81c-.86,0-1.73,0-2.6,0-5.5-.27-9.39-3.74-9.43-8.38,0-5,3.33-7.9,9.5-7.92C148.2,300.43,168.13,300.48,188.06,300.47Z" transform="translate(-31.25 -134.67)"/><path d="M476.3,572.09c-8.85,0-17.71,0-26.56,0-7.27-.05-10.18-2.9-10.2-10q-.06-24.74,0-49.46c0-7.2,2.88-10.08,10.14-10.1q27.35-.08,54.67,0c5.89,0,8.59,2.21,8.65,8q.25,26.55,0,53.1c-.07,5.61-3.33,8.43-9.09,8.51C494.7,572.17,485.5,572.08,476.3,572.09Z" transform="translate(-31.25 -134.67)"/><path d="M476.39,481.51c-9,0-18,0-27.05,0-5.91,0-9.85-3.51-9.78-8.43s3.23-7.59,9.71-7.61q27-.09,54.09,0c6.5,0,9.77,2.94,9.63,8.23-.14,5.1-3.34,7.78-9.56,7.81C494.42,481.55,485.4,481.51,476.39,481.51Z" transform="translate(-31.25 -134.67)"/><path d="M462.37,428.31c4.84,0,9.69-.15,14.53,0,5,.2,7.71,3.09,7.73,7.87s-2.59,7.85-7.61,7.95q-14.79.29-29.58,0a7.74,7.74,0,0,1-7.89-7.92c-.05-4.7,3.05-7.68,8.29-8,.34,0,.69,0,1,0h13.49Z" transform="translate(-31.25 -134.67)"/><path d="M219.28,226.34c2.94,0,5.91-.22,8.82,0a7.4,7.4,0,0,1,7,8.17c-.32,4.27-2.42,7.36-7,7.55-5.7.24-11.43.31-17.12,0-4.69-.27-7.58-3.91-7.21-8.45.38-4.71,3.07-7.18,7.77-7.35,2.59-.09,5.19,0,7.79,0Z" transform="translate(-31.25 -134.67)"/><path d="M130.49,242.13a81,81,0,0,1-8.82-.06,7.67,7.67,0,0,1-6.93-8.27c.36-4.33,2.7-7.22,7.18-7.42,5.7-.25,11.43-.27,17.13,0,4.53.23,7.11,3.43,7,8-.1,4.41-2.19,7.28-6.75,7.69-2.91.26-5.87.05-8.81.05Z" transform="translate(-31.25 -134.67)"/><path d="M174.59,242.16a79,79,0,0,1-8.29-.06c-4.43-.46-7.11-3.76-7-8.13s2.8-7.44,7.46-7.62c5.53-.21,11.08-.23,16.61,0,4.53.21,7.24,3.41,7.26,7.86s-2.59,7.52-7.19,7.9c-2.92.25-5.88.05-8.82.05Z" transform="translate(-31.25 -134.67)"/></svg>