<svg id="Layer_1" data-name="Layer 1" xmlns="http://www.w3.org/2000/svg" viewBox="0 0 551.43 551.43"><defs><style>.cls-1{fill:#fff;}</style></defs><title>logo</title><path class="cls-1" d="M520.26,676.35H77.39c8.87-5.1,3.72-14.29,5.91-21.23H276c.08,1.09.18,1.94.2,2.79.28,9.46,2.36,11.48,12,11.52,6.27,0,12.54,0,18.81,0,12.68,0,13.65-.91,14.5-13.46,0-.29.38-.55.8-1.12H432.78a32.38,32.38,0,0,0,4.83-.1c4.49-.67,7.23-3.37,7.27-7.9s-2.67-7.27-7.15-8a30.93,30.93,0,0,0-4.82-.11H321.62c-.1-1.41-.19-2.27-.21-3.13-.25-9.24-2.32-11.28-11.55-11.31-6.45,0-12.9,0-19.34,0-12.87,0-13.44.53-14.44,13.41,0,.28-.41.52-.61.76H82.76c0-4.33.11-8.41,0-12.48-.19-5.61-3.13-8.53-8.74-8.72-4.07-.13-8.14,0-12.43,0V423.94c1.16-.08,2-.16,2.89-.18,9.14-.23,11.28-2.4,11.32-11.61,0-5.91,0-11.83,0-17.74,0-14.5,0-14.53-14.23-16.28v-193c4.18,0,8.08.08,12,0,6.2-.15,9.08-3.08,9.21-9.35.08-3.89,0-7.78,0-12.13H88c12.54,0,25.08,0,37.62,0,6.15,0,9.87-3.23,9.76-8.22-.1-4.8-3.67-7.81-9.56-7.87-7.52-.07-15,0-22.57,0H82.76c0-4.81.13-8.91,0-13-.21-5.29-3.15-8.38-8.44-8.44q-21-.21-41.91,0c-5.6,0-8.64,3.11-8.69,8.73q-.18,20.68,0,41.37c0,5.91,3.08,8.79,9,9,4,.11,8.09,0,12,0V378.4c-13.27.7-14.1,1.59-14.1,14.78v16.66c0,12.33,1,13.38,13.31,14.05.29,0,.56.33.81.49V617.23c-4,0-7.53,0-11.1,0-7.2.09-10,2.86-10,10.18,0,12.54.17,25.08-.1,37.61-.11,4.94,1.2,8.72,5.46,11.32H22.57V124.92H574v6.45c-2.26-3.15-4.82-5.48-9.17-5.43-13.61.16-27.23,0-40.84.09-6.17,0-9,3.08-9.1,9.43-.07,3.88,0,7.76,0,11.68H321.56c-.06-1.22-.14-2.1-.15-3-.19-8.86-2.39-11.07-11.22-11.1-6.81,0-13.61,0-20.42,0-11.93,0-13.14,1.17-13.63,13.09,0,.31-.28.6-.64,1.35H170a27.75,27.75,0,0,0-4.83.13c-4.22.76-6.82,3.41-6.93,7.67-.11,4.53,2.5,7.34,7,8.18a26.66,26.66,0,0,0,4.82.13H276c.7,13.6,1.75,14.58,14.83,14.58h16.66c12.16,0,13.32-1.13,14-13.39,0-.29.35-.57.49-.79H514.89c0,4,0,7.54,0,11.11.09,7.18,2.88,9.91,10.2,10,3.68,0,7.36,0,11,0V378.38c-1.07.08-1.92.19-2.77.21-9.54.29-11.47,2.28-11.5,12q0,9.68,0,19.35c0,12.27,1,13.26,13.35,14,.28,0,.55.36.76.49V617.23H525.93c-8.58,0-11,2.54-11,11.3,0,3.32,0,6.64,0,10.2h-4.5c-11.83,0-23.65-.09-35.47.06-5,.06-8.35,3.53-8.36,8s3.36,7.74,8.34,8c2,.12,3.94,0,5.91,0h34.07c0,3.81.24,7,0,10.18C514.39,670,516,673.76,520.26,676.35ZM298.78,212.71q-23.65,0-47.3,0c-13.56,0-19.9,4.51-24.4,17.35q-59.46,169.59-118.91,339.2c-4.4,12.57,1.12,20.36,14.45,20.37q43.26,0,86.53,0c12.93,0,19.37-4.49,23.89-16.62,6.93-18.6,13.87-37.2,20.64-55.86,1.13-3.1,2.51-4.43,6.05-4.41q39.22.25,78.46,0c3.62,0,4.83,1.44,5.93,4.52,6.78,18.84,13.73,37.63,20.7,56.4,4.18,11.27,10.82,15.94,22.71,16q44.07.09,88.13,0c12.53,0,18.17-8.07,14-20Q429.92,399.3,370.11,229c-4.07-11.59-10.66-16.22-23-16.26C331,212.67,314.9,212.71,298.78,212.71Z" transform="translate(-22.57 -124.92)"/><path d="M29,676.35c-4.26-2.6-5.57-6.38-5.46-11.32.27-12.53.06-25.07.1-37.61,0-7.32,2.79-10.09,10-10.18,3.57,0,7.14,0,11.1,0V424.38c-.25-.16-.52-.48-.81-.49-12.3-.67-13.3-1.72-13.31-14.05V393.18c0-13.19.83-14.08,14.1-14.78V185.11c-3.91,0-8,.09-12,0-6-.16-9-3-9-9q-.17-20.68,0-41.37c0-5.62,3.09-8.68,8.69-8.73q21-.18,41.91,0c5.29.06,8.23,3.15,8.44,8.44.16,4.09,0,8.19,0,13h20.52c7.52,0,15-.05,22.57,0,5.89.06,9.46,3.07,9.56,7.87.11,5-3.61,8.19-9.76,8.22-12.54.05-25.08,0-37.62,0H82.77c0,4.35.06,8.24,0,12.13-.13,6.27-3,9.2-9.21,9.35-3.9.09-7.8,0-12,0v193c14.2,1.75,14.23,1.78,14.23,16.28,0,5.91,0,11.83,0,17.74,0,9.21-2.18,11.38-11.32,11.61-.87,0-1.73.1-2.89.18v193.3c4.29,0,8.36-.11,12.43,0,5.61.19,8.55,3.11,8.74,8.72.13,4.07,0,8.15,0,12.48H275.47c.2-.24.59-.48.61-.76,1-12.88,1.57-13.41,14.44-13.41,6.44,0,12.89,0,19.34,0,9.23,0,11.3,2.07,11.55,11.31,0,.86.11,1.72.21,3.13H432.91a30.93,30.93,0,0,1,4.82.11c4.48.74,7.19,3.47,7.15,8s-2.78,7.23-7.27,7.9a32.38,32.38,0,0,1-4.83.1H322.36c-.42.57-.78.83-.8,1.12-.85,12.55-1.82,13.46-14.5,13.46-6.27,0-12.54,0-18.81,0-9.65,0-11.73-2.06-12-11.52,0-.85-.12-1.7-.2-2.79H83.3c-2.19,6.94,3,16.13-5.91,21.23ZM66.28,168.74V142.53H40v26.21Zm.1,465H40.18V660h26.2Zm238.64,7H292.78V653H305ZM59.36,395.11H47.06v12.13h12.3Z" transform="translate(-22.57 -124.92)"/><path d="M520.26,676.35c-4.27-2.59-5.87-6.37-5.43-11.32.29-3.16,0-6.37,0-10.18H480.81c-2,0-3.95.09-5.91,0-5-.3-8.34-3.59-8.34-8s3.37-7.93,8.36-8c11.82-.15,23.64-.06,35.47-.06h4.5c0-3.56,0-6.88,0-10.2,0-8.76,2.46-11.26,11-11.3H536V424.38c-.21-.13-.48-.47-.76-.49-12.39-.74-13.35-1.73-13.35-14q0-9.67,0-19.35c0-9.67,2-11.66,11.5-12,.85,0,1.7-.13,2.77-.21V185.12c-3.69,0-7.37,0-11,0-7.32-.07-10.11-2.8-10.2-10,0-3.57,0-7.14,0-11.11H322c-.14.22-.47.5-.49.79-.7,12.26-1.86,13.38-14,13.39H290.86c-13.08,0-14.13-1-14.83-14.58H170a26.66,26.66,0,0,1-4.82-.13c-4.46-.84-7.07-3.65-7-8.18.11-4.26,2.71-6.91,6.93-7.67a27.75,27.75,0,0,1,4.83-.13H275.5c.36-.75.63-1,.64-1.35.49-11.92,1.7-13.09,13.63-13.09,6.81,0,13.61,0,20.42,0,8.83,0,11,2.24,11.22,11.1,0,.88.09,1.76.15,3H514.89c0-3.92-.06-7.8,0-11.68.12-6.35,2.93-9.38,9.1-9.43,13.61-.1,27.23.07,40.84-.09,4.35,0,6.91,2.28,9.17,5.43v48.37c-5.12,8.84-14.27,3.75-21.12,5.85V378.44c1.1.07,1.81.14,2.52.15,9.51.19,11.57,2.28,11.61,11.84q0,9.68,0,19.33c0,12.37-1.14,13.58-13.22,14.11-.29,0-.58.31-1,.54V617.23c3.5,0,6.71.23,9.87-.05,4.95-.45,8.72,1.16,11.32,5.43v53.74Zm11-507.66h26.27V142.52H531.26ZM557.49,660V633.79H531.3V660ZM305,149.47H292.78v12.3H305ZM550.58,395.12H538.31v12.11h12.27Z" transform="translate(-22.57 -124.92)"/><path class="cls-1" d="M574,622.61c-2.6-4.27-6.37-5.88-11.32-5.43-3.16.28-6.37.05-9.87.05V424.41c.4-.23.69-.53,1-.54,12.08-.53,13.22-1.74,13.22-14.11q0-9.66,0-19.33c0-9.56-2.1-11.65-11.61-11.84-.71,0-1.42-.08-2.52-.15V185.59c6.85-2.1,16,3,21.12-5.85Z" transform="translate(-22.57 -124.92)"/><path d="M298.78,212.71c16.12,0,32.25,0,48.37,0,12.3,0,18.89,4.67,23,16.26Q429.92,399.3,489.66,569.66c4.17,11.9-1.47,20-14,20q-44.06.06-88.13,0c-11.89,0-18.53-4.69-22.71-16-7-18.77-13.92-37.56-20.7-56.4-1.1-3.08-2.31-4.55-5.93-4.52q-39.22.25-78.46,0c-3.54,0-4.92,1.31-6.05,4.41C246.91,535.81,240,554.41,233,573c-4.52,12.13-11,16.61-23.89,16.62q-43.28,0-86.53,0c-13.33,0-18.85-7.8-14.45-20.37q59.45-169.6,118.91-339.2c4.5-12.84,10.84-17.33,24.4-17.35Q275.14,212.68,298.78,212.71ZM421.4,573.4c-.72-2.22-1.23-3.9-1.81-5.56L353,378c-2.78-7.93-5.64-15.84-8.19-23.84a7.68,7.68,0,0,1,4.81-10c4.19-1.41,8.22.39,10.18,4.63.6,1.29,1,2.69,1.44,4Q397.66,456.66,434,560.42c4.6,13.1,4.59,13.1,18.57,13.1h21.09c-.88-2.86-1.39-4.74-2-6.58q-38.89-110.84-77.82-221.67C381,308.83,368.35,272.36,355.44,236c-.92-2.58-3.21-6.5-5.06-6.61-10.6-.64-21.26-.31-32.36-.31.7,2.21,1.15,3.73,1.68,5.22q13.07,37.2,26.13,74.39a34.78,34.78,0,0,1,1.86,6.15c.63,4-1.08,7.19-4.83,8.61s-7.49.56-9.78-3.23a26.43,26.43,0,0,1-2-4.94c-9.32-26.48-18.7-52.94-27.83-79.49-1.7-5-4.18-7.16-9.66-7q-20.68.5-41.37,0c-5.59-.14-8.3,1.8-10.14,7.08q-58,165.83-116.18,331.56c-.63,1.8-1.07,3.67-1.76,6.07,12.32,0,24.1.17,35.87-.19,1.69-.05,3.91-2.34,4.82-4.14,1.93-3.8,3.12-8,4.67-12,2.37-6.13,6.05-8.36,10.86-6.65s6.39,6.2,4.14,12.47c-1.19,3.31-2.4,6.6-3.85,10.59,9.89,0,19-.26,28.1.1,5.17.2,7.74-1.81,9.45-6.59,5.82-16.33,12-32.54,18-48.8.59-1.59,1-3.23,1.72-5.4-7.56,0-14.43.63-21.13-.15-9.74-1.13-16.73.76-18.07,11.88a1.61,1.61,0,0,1-.19.5c-2.16,4.55-6.32,6.46-10.56,4.85s-6-5.9-4.39-10.65,3.41-9.42,5.17-14.11c2.86-7.64,4-8.44,12.2-8.44H344.42c8.41,0,9.56.83,12.49,8.8,7.59,20.64,15.09,41.32,22.89,61.88.88,2.33,3.38,5.66,5.25,5.74C397,573.65,409,573.4,421.4,573.4Z" transform="translate(-22.57 -124.92)"/><path class="cls-1" d="M66.28,168.74H40V142.53H66.28Z" transform="translate(-22.57 -124.92)"/><path class="cls-1" d="M66.38,633.71V660H40.18V633.71Z" transform="translate(-22.57 -124.92)"/><path class="cls-1" d="M305,640.71V653H292.78v-12.3Z" transform="translate(-22.57 -124.92)"/><path class="cls-1" d="M59.36,395.11v12.13H47.06V395.11Z" transform="translate(-22.57 -124.92)"/><path class="cls-1" d="M531.26,168.69V142.52h26.27v26.17Z" transform="translate(-22.57 -124.92)"/><path class="cls-1" d="M557.49,660H531.3V633.79h26.19Z" transform="translate(-22.57 -124.92)"/><path class="cls-1" d="M305,149.47v12.3H292.78v-12.3Z" transform="translate(-22.57 -124.92)"/><path class="cls-1" d="M550.58,395.12v12.11H538.31V395.12Z" transform="translate(-22.57 -124.92)"/><path class="cls-1" d="M421.4,573.4c-12.44,0-24.41.25-36.35-.27-1.87-.08-4.37-3.41-5.25-5.74-7.8-20.56-15.3-41.24-22.89-61.88-2.93-8-4.08-8.8-12.49-8.8H201c-8.2,0-9.34.8-12.2,8.44-1.76,4.69-3.57,9.36-5.17,14.11s.29,9.1,4.39,10.65,8.4-.3,10.56-4.85a1.61,1.61,0,0,0,.19-.5c1.34-11.12,8.33-13,18.07-11.88,6.7.78,13.57.15,21.13.15-.68,2.17-1.13,3.81-1.72,5.4-6,16.26-12.21,32.47-18,48.8-1.71,4.78-4.28,6.79-9.45,6.59-9.09-.36-18.21-.1-28.1-.1,1.45-4,2.66-7.28,3.85-10.59,2.25-6.27.76-10.73-4.14-12.47s-8.49.52-10.86,6.65c-1.55,4-2.74,8.18-4.67,12-.91,1.8-3.13,4.09-4.82,4.14-11.77.36-23.55.19-35.87.19.69-2.4,1.13-4.27,1.76-6.07Q184,401.58,242.05,235.79c1.84-5.28,4.55-7.22,10.14-7.08q20.67.54,41.37,0c5.48-.13,8,2.07,9.66,7,9.13,26.55,18.51,53,27.83,79.49a26.43,26.43,0,0,0,2,4.94c2.29,3.79,5.9,4.7,9.78,3.23s5.46-4.59,4.83-8.61a34.78,34.78,0,0,0-1.86-6.15q-13.05-37.2-26.13-74.39c-.53-1.49-1-3-1.68-5.22,11.1,0,21.76-.33,32.36.31,1.85.11,4.14,4,5.06,6.61,12.91,36.4,25.6,72.87,38.39,109.31q38.9,110.84,77.82,221.67c.65,1.84,1.16,3.72,2,6.58H452.6c-14,0-14,0-18.57-13.1q-36.36-103.77-72.75-207.53c-.47-1.35-.84-2.75-1.44-4-2-4.24-6-6-10.18-4.63a7.68,7.68,0,0,0-4.81,10c2.55,8,5.41,15.91,8.19,23.84l66.55,189.81C420.17,569.5,420.68,571.18,421.4,573.4ZM272.49,459.08c18.44,0,36.89,0,55.34,0q14.25,0,9.54-13.47-28-80-56.07-159.94c-1.5-4.29-3.39-8.11-8.7-8.06s-7.05,3.9-8.54,8.2q-27.74,79.8-55.57,159.55c-3.25,9.31-.11,13.71,9.72,13.73Q245.36,459.13,272.49,459.08Z" transform="translate(-22.57 -124.92)"/><path d="M272.49,459.08q-27.13,0-54.28,0c-9.83,0-13-4.42-9.72-13.73q27.76-79.77,55.57-159.55c1.49-4.3,3.24-8.15,8.54-8.2s7.2,3.77,8.7,8.06q28,80,56.07,159.94,4.71,13.45-9.54,13.47C309.38,459.11,290.93,459.08,272.49,459.08Zm.19-149L226.38,443c11.38,0,21.92.14,32.45-.18,1.42,0,3.49-2.16,4.05-3.75,8.9-25.09,17.61-50.25,26.3-75.41.5-1.45,1.1-3.28.65-4.6C284.4,343.16,278.78,327.37,272.68,310.05Zm46.59,132.76L299.5,386.49l-1.22.15c-6.44,18.57-12.89,37.13-19.49,56.17Z" transform="translate(-22.57 -124.92)"/><path class="cls-1" d="M272.68,310.05c6.1,17.32,11.72,33.11,17.15,49,.45,1.32-.15,3.15-.65,4.6-8.69,25.16-17.4,50.32-26.3,75.41-.56,1.59-2.63,3.71-4.05,3.75-10.53.32-21.07.18-32.45.18Z" transform="translate(-22.57 -124.92)"/><path class="cls-1" d="M319.27,442.81H278.79c6.6-19,13-37.6,19.49-56.17l1.22-.15Z" transform="translate(-22.57 -124.92)"/></svg>