<svg id="Layer_1" data-name="Layer 1" xmlns="http://www.w3.org/2000/svg" viewBox="0 0 563.86 563.77"><defs><style>.cls-1{fill:#fff;}</style></defs><title>merch design</title><path class="cls-1" d="M580.44,339.5V639.62c-9.55-9.3-19-18.64-28.65-27.87-7.12-6.84-14.37-13.55-21.57-20.3-3-2.8-6.74-3.91-10-1.48-2.15,1.63-4.12,5-4.12,7.55,0,2.41,2.28,5.26,4.27,7.18,14.51,13.93,29.21,27.67,43.85,41.47,6.63,6.25,10.6,6,16.18-1.06v65.95H16.58V147.29H580.44V329.61c-2.26-4.11-3.94-8.69-6.85-12.26q-51.74-63.46-103.86-126.61c-13-15.67-30.35-23.79-50.44-26.07a145.5,145.5,0,0,0-16.44-.82q-105.25-.07-210.52,0c-24.75,0-47.08,6.78-63.34,26.2C93.61,232.28,58.85,275.09,24,317.82c-8.37,10.27-8.6,21.47-1.4,32.56,4.09,6.29,8.39,12.45,12.59,18.67q20,29.58,40,59.15c9.88,14.59,20.74,15,31.5,1.26q10.68-13.62,21.38-27.22c1.09-1.38,2.27-2.67,4.48-5.25v7.33q0,44.52,0,89c0,6.76,2.85,10.13,8.12,10.16s8.29-3.4,8.3-10q.09-59.37,0-118.72c0-4.34-1-8.21-5.55-9.72s-7.9.77-10.76,4.46c-12.68,16.36-25.51,32.6-38.31,48.86-1,1.22-2.08,2.32-3.42,3.81-18.54-27.45-36.78-54.43-55-81.43-3.12-4.64-2.21-9,1.16-13.11q7.49-9.13,15-18.29c29.39-35.83,58.61-71.81,88.25-107.43,16.39-19.7,38.74-23,62.59-21.28,7,56.87,52.06,85.67,91.26,87.58,47.82,2.33,94.76-32.37,101-87.83,5.22,0,10.51-.21,15.78,0,19.63.93,36.05,8.26,48.71,23.79Q509.2,264.92,559,325.35c6.34,7.74,6.49,10.35,1,18.48Q534.92,380.91,509.81,418c-.89,1.32-1.9,2.55-3.19,4.26l-13.47-17.13c-9.5-12.1-19-24.18-28.46-36.34-2.64-3.4-5.87-5.07-10-3.78-4.31,1.33-5.67,4.84-5.71,9,0,1.47,0,2.93,0,4.4q0,64.31,0,128.62v7.38c-2.17-1.88-3.28-2.77-4.31-3.74-15.06-14.2-30-28.54-45.24-42.55-3.57-3.29-4.77-6.67-4.75-11.4.15-47.09,0-94.17.14-141.26,0-9.16-2.67-17-9.7-23-8.56-7.19-18.37-9-28.75-4.61-11.24,4.76-16.93,13.7-17.23,25.8-.28,11.17,0,22.35-.14,33.53a23.17,23.17,0,0,1-1,7.53c-1.82,5-7,7.58-12.47,6.79S316,356.19,315.65,350c-.3-6.4.41-12.93-.66-19.18-2.39-13.93-14.72-23-29-22.32a27.18,27.18,0,0,0-25.73,24.79c-.62,6.73-.15,13.55-.52,20.31-.36,6.58-5.25,11.14-11.32,11.07-5.84-.07-10.4-4.51-11.1-10.77a54.37,54.37,0,0,0-.89-6.52c-2.68-11.17-9.63-18.42-20.77-21.08-17.94-4.29-34.17,8.95-34.22,27.9q-.15,66.23,0,132.46c0,12.28-.23,24.56.09,36.83a28,28,0,0,0,27.16,27.12c15,.34,27.55-10.58,28.89-25.22.93-10.06,5.22-14.9,12.78-14.42,7.22.46,10.88,5.67,10.91,15.57,0,7.14,0,14.29,0,21.43,0,15.57-.28,31.16.22,46.72.48,14.9,13.08,26.32,27.87,26.16a27.63,27.63,0,0,0,27.41-26.73c.22-5.85-.07-11.73.16-17.58.28-7.16,4.72-11.76,11.1-11.88,6.72-.14,11.13,4.33,11.68,11.83,1.2,16.32,13,27.47,28.71,27.08,15.18-.37,26.55-12.22,27.07-28.27.09-3,0-6,0-10.18,2.51,2.18,4,3.41,5.44,4.74,10.8,10.18,20.86,21.31,32.56,30.32,12.56,9.68,17.93,20.93,15.63,36.58-1,6.92-.18,14.12-.18,21.21H149.05V538.28c0-8.75-2.8-12.94-8.48-12.8-5.46.14-8,4.12-8,12.63q0,57.43,0,114.87c0,15.75,6.21,21.95,21.93,21.95H443.61c15.63,0,21.79-6.24,21.81-22.06,0-6.88,0-13.75,0-21.77,2.25,2,3.49,3,4.66,4.07l56,52.78a29.17,29.17,0,0,0,4.58,3.91,7.53,7.53,0,0,0,10-1.28c3-3.15,3.31-6.86.71-10.48a29.59,29.59,0,0,0-3.82-3.94L420.44,565.64c-12.11-11.42-24.19-22.86-36.71-34.69l27.38-29c1.69,1.52,3.05,2.69,4.36,3.92q36.6,34.49,73.17,69c3.45,3.27,7,5.53,11.71,2.89,5.2-2.9,5.57-9.12.61-13.88q-15.65-15-31.6-29.78a11.08,11.08,0,0,1-4-9c.14-40.49.08-81,.1-121.47,0-1.75.16-3.5.31-6.4,2,2.41,3.33,3.87,4.54,5.4q10.86,13.83,21.69,27.68c.22.29.44.59.67.87,8.91,11.11,20.6,10.9,28.57-.78q24.78-36.29,49.23-72.8C574.27,351.91,577.13,345.56,580.44,339.5Z" transform="translate(-16.58 -147.29)"/><path d="M580.44,339.5c-3.31,6.06-6.17,12.41-10,18.13q-24.37,36.57-49.23,72.8c-8,11.68-19.66,11.89-28.57.78-.23-.28-.45-.58-.67-.87q-10.85-13.84-21.69-27.68c-1.21-1.53-2.51-3-4.54-5.4-.15,2.9-.31,4.65-.31,6.4,0,40.49,0,81-.1,121.47a11.08,11.08,0,0,0,4,9q16,14.7,31.6,29.78c5,4.76,4.59,11-.61,13.88-4.74,2.64-8.26.38-11.71-2.89q-36.52-34.57-73.17-69c-1.31-1.23-2.67-2.4-4.36-3.92l-27.38,29c12.52,11.83,24.6,23.27,36.71,34.69L537.56,676.16a29.59,29.59,0,0,1,3.82,3.94c2.6,3.62,2.33,7.33-.71,10.48a7.53,7.53,0,0,1-10,1.28,29.17,29.17,0,0,1-4.58-3.91l-56-52.78c-1.17-1.1-2.41-2.11-4.66-4.07,0,8,0,14.89,0,21.77,0,15.82-6.18,22.06-21.81,22.06H154.49c-15.72,0-21.92-6.2-21.93-21.95q0-57.43,0-114.87c0-8.51,2.55-12.49,8-12.63,5.68-.14,8.47,4,8.48,12.8V658H448.93c0-7.09-.84-14.29.18-21.21,2.3-15.65-3.07-26.9-15.63-36.58-11.7-9-21.76-20.14-32.56-30.32-1.42-1.33-2.93-2.56-5.44-4.74,0,4.17.08,7.18,0,10.18-.52,16.05-11.89,27.9-27.07,28.27-15.69.39-27.51-10.76-28.71-27.08-.55-7.5-5-12-11.68-11.83-6.38.12-10.82,4.72-11.1,11.88-.23,5.85.06,11.73-.16,17.58a27.63,27.63,0,0,1-27.41,26.73c-14.79.16-27.39-11.26-27.87-26.16-.5-15.56-.18-31.15-.22-46.72,0-7.14,0-14.29,0-21.43,0-9.9-3.69-15.11-10.91-15.57-7.56-.48-11.85,4.36-12.78,14.42C236.22,540,223.71,551,208.67,550.61a28,28,0,0,1-27.16-27.12c-.32-12.27-.09-24.55-.09-36.83q0-66.23,0-132.46c.05-18.95,16.28-32.19,34.22-27.9,11.14,2.66,18.09,9.91,20.77,21.08a54.37,54.37,0,0,1,.89,6.52c.7,6.26,5.26,10.7,11.1,10.77,6.07.07,11-4.49,11.32-11.07.37-6.76-.1-13.58.52-20.31A27.18,27.18,0,0,1,286,308.5c14.27-.72,26.6,8.39,29,22.32,1.07,6.25.36,12.78.66,19.18.3,6.19,4.31,10.77,9.79,11.56s10.65-1.81,12.47-6.79a23.17,23.17,0,0,0,1-7.53c.12-11.18-.14-22.36.14-33.53.3-12.1,6-21,17.23-25.8,10.38-4.4,20.19-2.58,28.75,4.61,7,5.91,9.72,13.79,9.7,23-.1,47.09,0,94.17-.14,141.26,0,4.73,1.18,8.11,4.75,11.4,15.23,14,30.18,28.35,45.24,42.55,1,1,2.14,1.86,4.31,3.74V507q0-64.32,0-128.62c0-1.47,0-2.93,0-4.4,0-4.19,1.4-7.7,5.71-9,4.16-1.29,7.39.38,10,3.78,9.43,12.16,19,24.24,28.46,36.34l13.47,17.13c1.29-1.71,2.3-2.94,3.19-4.26q25.11-37.07,50.18-74.15c5.49-8.13,5.34-10.74-1-18.48q-49.65-60.56-99.26-121.14c-12.66-15.53-29.08-22.86-48.71-23.79-5.27-.25-10.56,0-15.78,0-6.24,55.46-53.18,90.16-101,87.83C255,266.3,210,237.5,203,180.63c-23.85-1.7-46.2,1.58-62.59,21.28-29.64,35.62-58.86,71.6-88.25,107.43q-7.48,9.14-15,18.29c-3.37,4.11-4.28,8.47-1.16,13.11,18.21,27,36.45,54,55,81.43,1.34-1.49,2.45-2.59,3.42-3.81,12.8-16.26,25.63-32.5,38.31-48.86,2.86-3.69,6.08-6,10.76-4.46s5.56,5.38,5.55,9.72q0,59.36,0,118.72c0,6.64-3,10.06-8.3,10s-8.11-3.4-8.12-10.16q-.09-44.52,0-89V397c-2.21,2.58-3.39,3.87-4.48,5.25q-10.71,13.59-21.38,27.22c-10.76,13.74-21.62,13.33-31.5-1.26q-20-29.55-40-59.15c-4.2-6.22-8.5-12.38-12.59-18.67-7.2-11.09-7-22.29,1.4-32.56C58.85,275.09,93.61,232.28,129,190c16.26-19.42,38.59-26.21,63.34-26.2q105.25,0,210.52,0a145.5,145.5,0,0,1,16.44.82c20.09,2.28,37.45,10.4,50.44,26.07q52.25,63,103.86,126.61c2.91,3.57,4.59,8.15,6.85,12.26ZM378,435.18c.12-2.42.24-3.8.24-5.18q0-57.17,0-114.32a25.86,25.86,0,0,0-.15-3.84c-1.35-8.57-11.77-12.93-18-6.95-2.65,2.55-4.23,7.27-4.42,11.11-.6,12.06.07,24.18-.46,36.25a27.41,27.41,0,0,1-25.34,25.85c-14.64,1-27.15-7.89-29.83-21.94-1.12-5.86-.79-12-.93-18-.2-8.35-4.32-13.2-11.41-13.16-6.79.05-11.08,4.83-11.31,12.79-.17,6,.15,12.11-.3,18.12a27.56,27.56,0,0,1-26.52,25.3,28.09,28.09,0,0,1-28.4-22.68c-.5-2.69-.39-5.51-1.07-8.14a11.12,11.12,0,0,0-11.42-8.41,11.57,11.57,0,0,0-10.59,9.59,30,30,0,0,0-.2,4.93q0,81.35,0,162.69a32.38,32.38,0,0,0,.17,4.93,11.64,11.64,0,0,0,11.88,10,11.4,11.4,0,0,0,11.13-10.16c.3-2.17.44-4.37.83-6.53a27.94,27.94,0,0,1,34.58-22.09c13.21,3.51,21.13,14.19,21.21,29.09.12,22.53,0,45.06.09,67.6,0,7.45,4.67,12.29,11.2,12.33s11.15-4.93,11.32-12.22c.13-5.68-.18-11.38.14-17,.88-15.59,12.65-26.91,27.75-27s26.81,11.13,27.93,26.76c.56,7.7,4.72,12.16,11.36,12.18,6.79,0,11.29-4.81,11.46-12.66.15-6.77.36-13.58-.11-20.32a13.42,13.42,0,0,0-3.37-8c-9.34-9.3-19.23-18.05-28.58-27.35-4.94-4.91-9.93-8.93-17.34-8.89-1.93,0-3.91-.9-5.79-1.59-14-5.15-23.4-15.56-30.16-28.28-7.72-14.55-18.44-24.17-35.43-26.15-7.09-.82-9.64-7.21-5.71-13.09,33.09-49.59,91.74-45.66,122.16-9.52ZM220.19,180.53c2.26,35.61,36,74,84.51,71.13,37-2.17,74.84-38.52,72.82-71.13Zm53.88,259.73c19.24,9.63,22.54,12.86,33.94,31.77,2.63,4.36,5.34,9.07,9.16,12.22,4.79,3.95,10.6,6.86,16.34,9.38,1.71.75,5.36-.59,6.93-2.16,9.15-9.23,17.75-19,27-28.18,3.5-3.49,3.56-6.37,1.65-10.5C352.17,416.17,300.55,409.16,274.07,440.26Zm97.65,79.34,27.47-29.1L380.7,473.05l-27.47,29.17Z" transform="translate(-16.58 -147.29)"/><path d="M580.44,645.11c-5.58,7-9.55,7.31-16.18,1.06-14.64-13.8-29.34-27.54-43.85-41.47-2-1.92-4.27-4.77-4.27-7.18,0-2.58,2-5.92,4.12-7.55,3.22-2.43,7-1.32,10,1.48,7.2,6.75,14.45,13.46,21.57,20.3,9.61,9.23,19.1,18.57,28.65,27.87Z" transform="translate(-16.58 -147.29)"/><path class="cls-1" d="M378,435.18l-3.35-3.94c-30.42-36.14-89.07-40.07-122.16,9.52-3.93,5.88-1.38,12.27,5.71,13.09,17,2,27.71,11.6,35.43,26.15,6.76,12.72,16.12,23.13,30.16,28.28,1.88.69,3.86,1.6,5.79,1.59,7.41,0,12.4,4,17.34,8.89,9.35,9.3,19.24,18,28.58,27.35a13.42,13.42,0,0,1,3.37,8c.47,6.74.26,13.55.11,20.32-.17,7.85-4.67,12.68-11.46,12.66-6.64,0-10.8-4.48-11.36-12.18-1.12-15.63-12.78-26.8-27.93-26.76s-26.87,11.36-27.75,27c-.32,5.66,0,11.36-.14,17-.17,7.29-4.84,12.25-11.32,12.22s-11.16-4.88-11.2-12.33c-.12-22.54,0-45.07-.09-67.6-.08-14.9-8-25.58-21.21-29.09a27.94,27.94,0,0,0-34.58,22.09c-.39,2.16-.53,4.36-.83,6.53A11.4,11.4,0,0,1,210,534.1a11.64,11.64,0,0,1-11.88-10,32.38,32.38,0,0,1-.17-4.93q0-81.34,0-162.69a30,30,0,0,1,.2-4.93,11.57,11.57,0,0,1,10.59-9.59,11.12,11.12,0,0,1,11.42,8.41c.68,2.63.57,5.45,1.07,8.14a28.09,28.09,0,0,0,28.4,22.68,27.56,27.56,0,0,0,26.52-25.3c.45-6,.13-12.08.3-18.12.23-8,4.52-12.74,11.31-12.79,7.09,0,11.21,4.81,11.41,13.16.14,6-.19,12.18.93,18,2.68,14,15.19,22.92,29.83,21.94a27.41,27.41,0,0,0,25.34-25.85c.53-12.07-.14-24.19.46-36.25.19-3.84,1.77-8.56,4.42-11.11,6.2-6,16.62-1.62,18,6.95a25.86,25.86,0,0,1,.15,3.84q0,57.17,0,114.32C378.22,431.38,378.1,432.76,378,435.18Z" transform="translate(-16.58 -147.29)"/><path class="cls-1" d="M220.19,180.53H377.52c2,32.61-35.78,69-72.82,71.13C256.23,254.51,222.45,216.14,220.19,180.53Z" transform="translate(-16.58 -147.29)"/><path class="cls-1" d="M274.07,440.26c26.48-31.1,78.1-24.09,95,12.53,1.91,4.13,1.85,7-1.65,10.5-9.22,9.17-17.82,18.95-27,28.18-1.57,1.57-5.22,2.91-6.93,2.16-5.74-2.52-11.55-5.43-16.34-9.38-3.82-3.15-6.53-7.86-9.16-12.22C296.61,453.12,293.31,449.89,274.07,440.26Z" transform="translate(-16.58 -147.29)"/><path class="cls-1" d="M371.72,519.6l-18.49-17.38,27.47-29.17,18.49,17.45Z" transform="translate(-16.58 -147.29)"/></svg>