<svg id="Layer_1" data-name="Layer 1" xmlns="http://www.w3.org/2000/svg" viewBox="0 0 547.25 597.05"><defs><style>.cls-1{fill:#fff;}</style></defs><title>portrait art</title><path class="cls-1" d="M24.6,680.74V133.36H571.85V680.74Zm81.11-258.83v181.9c0,9.42,1.88,11.35,11.13,11.35H408.1c9,0,11-2,11-11q0-160.3.07-320.61a14.64,14.64,0,0,0-4.77-11.28Q395,253.24,376,233.8A15.07,15.07,0,0,0,364.2,229q-123.49.16-247,.08c-9.73,0-11.5,1.76-11.5,11.43Zm378.86,3.61q0-63,0-125.9c0-12.58-6.79-19.38-19.41-19.56-3.56,0-7.11,0-10.67,0-14.36.05-21,6.56-21,20.8q0,124.83,0,249.66a35.39,35.39,0,0,0,1.06,8.94c5.42,20.6,11,41.15,16.49,61.74,1.16,4.38,2.48,8.42,8,8.36s6.7-4.3,7.85-8.57c5.08-18.85,10.4-37.64,15.22-56.56a74.43,74.43,0,0,0,2.3-17.82C484.67,506.25,484.57,465.88,484.57,425.52Zm-65.4-218.21a21.8,21.8,0,1,0,21.31-21.89A21.49,21.49,0,0,0,419.17,207.31Zm65.55,36.35a7.22,7.22,0,1,0,7.16,7.59A7.36,7.36,0,0,0,484.72,243.66Z" transform="translate(-24.6 -122.42)"/><path d="M46.94,440.32q0-121.9,0-243.81c0-13,2.37-15.36,15.45-15.36q166,0,332-.12c6.46,0,11.28,1.79,15.81,6.43q25.57,26.16,51.7,51.74a19.71,19.71,0,0,1,6.41,15.17q-.18,215.49-.1,431c0,12-2.76,14.77-14.81,14.77H61.89c-12.43,0-15-2.6-15-15.26Q46.93,562.59,46.94,440.32Zm311.93,239.9h89.26v-421c-15.19,0-30,0-44.72,0-10.78,0-13.62-2.85-13.64-13.51,0-14.78,0-29.55,0-44.74H67.19V680.61h9c79.14,0,158.28-.25,237.42.26,12.21.08,21.11-4.38,29.13-12.38,10-10,15.5-22.32,16.84-36.29.24-2.59-1.58-6.35-3.69-8-6.18-4.86-13-8.89-19.54-13.31-4.72-3.19-6.39-7.35-4.39-13,3-8.55,5.71-17.22,8.67-25.79,2.58-7.48,7.51-10.57,13.2-8.5s7.66,7.24,5.19,15c-2.07,6.52-4.27,13-6.46,19.63,7.28,4.83,14,9.44,20.81,13.77,4.7,3,6.71,6.88,6.63,12.52C379.67,645.16,372.68,663.25,358.87,680.22Zm51.05-440.65h21.73l-21.73-22.35Z" transform="translate(-24.6 -122.42)"/><path d="M556.22,445.18c0,54.26.13,108.52-.14,162.78A100.25,100.25,0,0,1,553,631.91c-6.48,25.43-13.63,50.7-20.46,76-1.54,5.73-3.13,11.44-10.56,11.52s-9.16-5.36-10.72-11.24c-7.32-27.68-14.88-55.3-22.17-83a48.59,48.59,0,0,1-1.43-12q-.11-167.81,0-335.6c0-19.14,8.86-27.9,28.17-28,4.78,0,9.56-.06,14.34,0,17,.23,26.09,9.37,26.1,26.28Q556.26,360.57,556.22,445.18Zm-19.6,166.3V288.58c0-19.53,0-19.53-19.2-19.48-10.06,0-10.07,0-10.07,9.93q0,162.41,0,324.81v7.64Zm-25.48,20.6c3.54,13,6.83,25.16,10.13,37.29l1.48-.28c3.26-12.16,6.53-24.32,9.93-37Z" transform="translate(-24.6 -122.42)"/><path d="M468.3,151.86A28.91,28.91,0,0,1,497,122.42a29.34,29.34,0,0,1,29.95,29,29.3,29.3,0,1,1-58.6.4Zm28.88,9.46a9.89,9.89,0,0,0,10.08-9.15,9.77,9.77,0,1,0-19.53-.66A9.89,9.89,0,0,0,497.18,161.32Z" transform="translate(-24.6 -122.42)"/><path d="M556.42,200.71A9.88,9.88,0,0,1,566,210.93a9.78,9.78,0,1,1-9.62-10.22Z" transform="translate(-24.6 -122.42)"/><path class="cls-1" d="M358.87,680.22c13.81-17,20.8-35.06,21.1-55.71.08-5.64-1.93-9.54-6.63-12.52-6.85-4.33-13.53-8.94-20.81-13.77,2.19-6.62,4.39-13.11,6.46-19.63,2.47-7.74.65-12.85-5.19-15s-10.62,1-13.2,8.5c-3,8.57-5.63,17.24-8.67,25.79-2,5.64-.33,9.8,4.39,13,6.54,4.42,13.36,8.45,19.54,13.31,2.11,1.65,3.93,5.41,3.69,8-1.34,14-6.81,26.29-16.84,36.29-8,8-16.92,12.46-29.13,12.38-79.14-.51-158.28-.26-237.42-.26h-9V201H389.76c0,15.19,0,30,0,44.74,0,10.66,2.86,13.49,13.64,13.51,14.76,0,29.53,0,44.72,0v421Zm31.39-213.3c-6.55,4.83-9.56,11.43-4,20.19.66,1-1,4.28-2.42,5.8a16.25,16.25,0,0,0-4,16c4.12,15.59-1.92,24-17.79,24.26-17.21.24-34.46-.41-51.62.63-11.21.68-19.44-1.14-22.59-13.21a9.09,9.09,0,0,0-2.87-4,9.59,9.59,0,0,0-14.75,2.57c-4.29,7.68,9.61,33.28,18.45,33.94,1.43.11,2.87,0,4.3.05h11.65c0,13.25,3.33,26-9.3,35.5-2.4,1.8-3.1,8.56-1.84,12,3.07,8.48,7.61,16.44,11.84,24.47,3.19,6,8.55,7.92,13.68,5.26s6.5-8,3.62-14.24c-2.19-4.77-5-9.28-6.85-14.17-.78-2.09-.63-5.66.68-7.19,6-7,8.2-14.88,7.74-23.89-.3-5.83-.06-11.69-.06-17.78h20.16c6.45,0,12.91.09,19.36,0,19.77-.37,31-9.58,36.07-28.34,2.79-10.26-.87-22,7.39-31.17,1.53-1.71-.17-6.32-.4-9.59-.13-1.76-1.15-4.38-.35-5.16,9.41-9.22,7.73-18.14-.68-27,1.55-.65,2.63-1.17,3.76-1.56,21.22-7.31,25.19-22.21,10.39-39.25-9.7-11.18-19.45-22.31-29.52-33.84,13.64-12.51,13.14-26.25,4.48-41-2.65-4.5-4.4-9.52-6.64-14.27-8.44-17.87-18.25-35.15-34-47.33-11.95-9.24-25.58-16.41-38.9-23.71-5.93-3.25-11.46-.47-13.66,5-2.14,5.28.32,10.15,6.62,13,1.52.69,3.1,1.25,4.63,1.92,16.11,7,30.73,16.54,40.25,31.24,10.34,15.94,18.65,33.22,27.42,50.13,1,1.94.28,6.19-1.27,7.8-6.5,6.76-13.46,13.11-20.58,19.23-3.51,3-7.72,5.26-12.23,8.25,8.61,6.47,17.61,6.19,26.7,5.72,1.91-.09,4.65-.25,5.65.85,10.23,11.29,20.17,22.83,30.08,34.16-.76,1-1,1.63-1.32,1.76-5.15,1.85-10.34,3.61-15.5,5.44-7.6,2.7-10.1,6.23-8.31,14.15C385.07,455.26,387.84,460.6,390.26,466.92ZM253.45,259.34c4.77.29,9.54.71,14.31.84,6.21.17,10-2.93,10.78-9.11.66-5.38-3.24-9.94-9.48-10.43-7.85-.6-15.76-.62-23.64-.6-47.06.1-84.32,19.34-114.37,55.57-24.77,29.87-31.78,62.34-19,98.27,7.89,22.17,19,43.17,28.25,64.87,3,7.17,6.23,14.77,6.86,22.38,4.24,51.45-3.44,98.88-47.58,133.2-4.34,3.37-5.11,8.19-1.87,12.78,3.37,4.79,8.09,5.7,13.23,2.79a49.93,49.93,0,0,0,6.41-4.58c22.41-17.78,35.94-41.38,43.22-68.51,11.33-42.24,12.72-83.4-10.56-123.37-9.94-17.06-16-36.68-21.8-55.76-4.93-16.23-4.8-33.36,4.15-48.74C159.3,282.58,198.42,257,253.45,259.34Zm3.79,201c-7.18-3.53-13.77-6.78-20.37-10-13.54-6.6-17.27-13-16.25-27.72,1.15-16.77,2.09-17.48,18.35-13.89.24,0,.46.16.69.21,5.75,1.29,10-.83,12.06-6.23,2-5.2-.63-10.74-6.56-12.32a88.48,88.48,0,0,0-19.64-3.12,18.65,18.65,0,0,0-16.66,8.09c-16.27,23.08-8.18,58.06,16.49,71.14,7.34,3.89,14.6,7.93,21.89,11.9,12.3,6.7,26.28,1.25,29.12-11.36,1.74-7.71-.43-13-6.12-14.85S260.39,452.89,257.24,460.34ZM133.33,501.26c-2.8-13-5.23-26.06-8.57-38.91A9,9,0,0,0,112.35,456c-5.29,2.24-7.57,6.35-6,12.13.48,1.85,1.22,3.62,1.7,5.47,6.43,25,6.17,49.15-8.54,71.61-4.7,7.16-4.32,12.65,1.06,16.17s10.45,1.65,15.38-5.6C127,539.41,131.77,521.22,133.33,501.26Z" transform="translate(-24.6 -122.42)"/><path class="cls-1" d="M409.92,239.57V217.22l21.73,22.35Z" transform="translate(-24.6 -122.42)"/><path class="cls-1" d="M536.62,611.48H507.34v-7.64q0-162.41,0-324.81c0-9.91,0-9.91,10.07-9.93,19.2-.05,19.2-.05,19.2,19.48v322.9Z" transform="translate(-24.6 -122.42)"/><path class="cls-1" d="M511.14,632.08h21.54c-3.4,12.69-6.67,24.85-9.93,37l-1.48.28C518,657.24,514.68,645.11,511.14,632.08Z" transform="translate(-24.6 -122.42)"/><path class="cls-1" d="M497.18,161.32a9.89,9.89,0,0,1-9.45-9.81,9.77,9.77,0,1,1,19.53.66A9.89,9.89,0,0,1,497.18,161.32Z" transform="translate(-24.6 -122.42)"/><path d="M390.26,466.92c-2.42-6.32-5.19-11.66-6.47-17.35-1.79-7.92.71-11.45,8.31-14.15,5.16-1.83,10.35-3.59,15.5-5.44.36-.13.56-.72,1.32-1.76-9.91-11.33-19.85-22.87-30.08-34.16-1-1.1-3.74-.94-5.65-.85-9.09.47-18.09.75-26.7-5.72,4.51-3,8.72-5.22,12.23-8.25,7.12-6.12,14.08-12.47,20.58-19.23,1.55-1.61,2.28-5.86,1.27-7.8-8.77-16.91-17.08-34.19-27.42-50.13-9.52-14.7-24.14-24.28-40.25-31.24-1.53-.67-3.11-1.23-4.63-1.92-6.3-2.89-8.76-7.76-6.62-13,2.2-5.44,7.73-8.22,13.66-5,13.32,7.3,26.95,14.47,38.9,23.71,15.75,12.18,25.56,29.46,34,47.33,2.24,4.75,4,9.77,6.64,14.27,8.66,14.71,9.16,28.45-4.48,41,10.07,11.53,19.82,22.66,29.52,33.84,14.8,17,10.83,31.94-10.39,39.25-1.13.39-2.21.91-3.76,1.56,8.41,8.83,10.09,17.75.68,27-.8.78.22,3.4.35,5.16.23,3.27,1.93,7.88.4,9.59-8.26,9.22-4.6,20.91-7.39,31.17-5.1,18.76-16.3,28-36.07,28.34-6.45.12-12.91,0-19.36,0H324.19c0,6.09-.24,11.95.06,17.78.46,9-1.75,16.89-7.74,23.89-1.31,1.53-1.46,5.1-.68,7.19,1.82,4.89,4.66,9.4,6.85,14.17,2.88,6.26,1.42,11.62-3.62,14.24s-10.49.79-13.68-5.26c-4.23-8-8.77-16-11.84-24.47-1.26-3.48-.56-10.24,1.84-12,12.63-9.45,9.33-22.25,9.3-35.5H293c-1.43,0-2.87.06-4.3-.05-8.84-.66-22.74-26.26-18.45-33.94A9.59,9.59,0,0,1,285,516.53a9.09,9.09,0,0,1,2.87,4c3.15,12.07,11.38,13.89,22.59,13.21,17.16-1,34.41-.39,51.62-.63,15.87-.22,21.91-8.67,17.79-24.26a16.25,16.25,0,0,1,4-16c1.38-1.52,3.08-4.76,2.42-5.8C380.7,478.35,383.71,471.75,390.26,466.92Z" transform="translate(-24.6 -122.42)"/><path d="M253.45,259.34c-55-2.31-94.15,23.24-121.09,69.6-9,15.38-9.08,32.51-4.15,48.74,5.79,19.08,11.86,38.7,21.8,55.76,23.28,40,21.89,81.13,10.56,123.37-7.28,27.13-20.81,50.73-43.22,68.51a49.93,49.93,0,0,1-6.41,4.58c-5.14,2.91-9.86,2-13.23-2.79-3.24-4.59-2.47-9.41,1.87-12.78,44.14-34.32,51.82-81.75,47.58-133.2-.63-7.61-3.82-15.21-6.86-22.38-9.25-21.7-20.36-42.7-28.25-64.87-12.78-35.93-5.77-68.4,19-98.27,30-36.23,67.31-55.47,114.37-55.57,7.88,0,15.79,0,23.64.6,6.24.49,10.14,5.05,9.48,10.43-.76,6.18-4.57,9.28-10.78,9.11C263,260.05,258.22,259.63,253.45,259.34Z" transform="translate(-24.6 -122.42)"/><path d="M257.24,460.34c3.15-7.45,7.18-10.08,13-8.15s7.86,7.14,6.12,14.85c-2.84,12.61-16.82,18.06-29.12,11.36-7.29-4-14.55-8-21.89-11.9-24.67-13.08-32.76-48.06-16.49-71.14a18.65,18.65,0,0,1,16.66-8.09,88.48,88.48,0,0,1,19.64,3.12c5.93,1.58,8.59,7.12,6.56,12.32-2.11,5.4-6.31,7.52-12.06,6.23-.23-.05-.45-.16-.69-.21-16.26-3.59-17.2-2.88-18.35,13.89-1,14.76,2.71,21.12,16.25,27.72C243.47,453.56,250.06,456.81,257.24,460.34Z" transform="translate(-24.6 -122.42)"/><path d="M133.33,501.26c-1.56,20-6.31,38.15-17.42,54.48-4.93,7.25-10.08,9.08-15.38,5.6s-5.76-9-1.06-16.17c14.71-22.46,15-46.64,8.54-71.61-.48-1.85-1.22-3.62-1.7-5.47-1.53-5.78.75-9.89,6-12.13a9,9,0,0,1,12.41,6.39C128.1,475.2,130.53,488.28,133.33,501.26Z" transform="translate(-24.6 -122.42)"/></svg>